0
SECTION
2
HEADER
9
$INSUNITS
70
4
9
$ACADVER
1
AC1014
9
$HANDSEED
5
FFFF
0
ENDSEC
0
SECTION
2
TABLES
0
TABLE
2
VPORT
5
8
100
AcDbSymbolTable
0
ENDTAB
0
TABLE
2
LTYPE
5
5
100
AcDbSymbolTable
0
LTYPE
5
14
100
AcDbSymbolTableRecord
100
AcDbLinetypeTableRecord
2
BYBLOCK
70
0
0
LTYPE
5
15
100
AcDbSymbolTableRecord
100
AcDbLinetypeTableRecord
2
BYLAYER
70
0
0
LTYPE
5
16
100
AcDbSymbolTableRecord
100
AcDbLinetypeTableRecord
2
DASHED
70
0
3
Dashed __ __ __ __ __ __ __ __ __ __ __ __ __ _
72
65
73
2
40
0.75
49
0.5
74
0
49
-0.25
74
0
0
ENDTAB
0
TABLE
2
LAYER
5
2
100
AcDbSymbolTable
70
2
0
LAYER
5
50
100
AcDbSymbolTableRecord
100
AcDbLayerTableRecord
2
0
70
0
62
7
6
CONTINUOUS
0
ENDTAB
0
TABLE
2
STYLE
5
3
100
AcDbSymbolTable
70
1
0
STYLE
5
11
100
AcDbSymbolTableRecord
100
AcDbTextStyleTableRecord
2
STANDARD
70
0
0
ENDTAB
0
TABLE
2
VIEW
5
6
100
AcDbSymbolTable
70
0
0
ENDTAB
0
TABLE
2
UCS
5
7
100
AcDbSymbolTable
70
0
0
ENDTAB
0
TABLE
2
APPID
5
9
100
AcDbSymbolTable
70
2
0
APPID
5
12
100
AcDbSymbolTableRecord
100
AcDbRegAppTableRecord
2
ACAD
70
0
0
ENDTAB
0
TABLE
2
DIMSTYLE
5
A
100
AcDbSymbolTable
70
1
0
ENDTAB
0
TABLE
2
BLOCK_RECORD
5
1
100
AcDbSymbolTable
70
1
0
BLOCK_RECORD
5
1F
100
AcDbSymbolTableRecord
100
AcDbBlockTableRecord
2
*MODEL_SPACE
0
BLOCK_RECORD
5
1B
100
AcDbSymbolTableRecord
100
AcDbBlockTableRecord
2
*PAPER_SPACE
0
ENDTAB
0
ENDSEC
0
SECTION
2
BLOCKS
0
BLOCK
5
20
100
AcDbEntity
100
AcDbBlockBegin
2
*MODEL_SPACE
0
ENDBLK
5
21
100
AcDbEntity
100
AcDbBlockEnd
0
BLOCK
5
1C
100
AcDbEntity
100
AcDbBlockBegin
2
*PAPER_SPACE
0
ENDBLK
5
1D
100
AcDbEntity
100
AcDbBlockEnd
0
ENDSEC
0
SECTION
2
ENTITIES
0
LWPOLYLINE
5
100
100
AcDbEntity
8
0
100
AcDbPolyline
90
20
70
1
43
0.0
10
-1129.3816955566408
20
-130.59264774430926
42
0.99999999999999989
10
-1133.6243362437599
20
-126.35000705718997
10
-1139.0816955566406
20
-126.35000705718996
10
-1141.0816955566406
20
-124.35000705718997
10
-1141.0816955566406
20
-38.350007057189913
10
-1139.0816955566406
20
-36.350007057189913
10
-1133.6243362437599
20
-36.350007057189934
42
0.99999999999999989
10
-1129.3816955566406
20
-32.107366370070622
10
-1129.3816955566406
20
-6.3500070571899814
10
-829.38169555664058
20
-6.3500070571900569
10
-829.38169555664058
20
-32.107366370070672
42
1.0000000074505804
10
-825.13905486952126
20
-36.350007057189977
10
-819.68169555664065
20
-36.350007057189984
10
-817.68169555664076
20
-38.350007057189984
10
-817.68169555664053
20
-124.35000705719004
10
-819.68169555664076
20
-126.35000705719003
10
-825.13905486952137
20
-126.35000705719001
42
0.99999999999999989
10
-829.38169555664058
20
-130.59264774430932
10
-829.38169555664058
20
-156.35000705719003
10
-1129.3816955566406
20
-156.35000705718997
0
LWPOLYLINE
5
101
100
AcDbEntity
8
0
100
AcDbPolyline
90
4
70
1
43
0.0
10
-1034.1690118199613
20
-35.573157635339228
10
-1007.1796209291258
20
-62.747829286376373
42
-0.99999999999999989
10
-1015.4810219295732
20
-70.992630159033766
10
-1042.4704128204089
20
-43.817958507996515
42
-0.99999999999999989
0
LWPOLYLINE
5
102
100
AcDbEntity
8
0
100
AcDbPolyline
90
4
70
1
43
0.0
10
-893.25429319419914
20
-119.12253610796482
10
-866.26490230336344
20
-91.947864456927718
42
-0.99999999999999989
10
-857.96350130291614
20
-100.19266532958503
10
-884.9528921937515
20
-127.36733698062226
42
-0.99999999999999989
0
LWPOLYLINE
5
103
100
AcDbEntity
8
0
100
AcDbPolyline
90
4
70
1
43
0.0
10
-1022.1223837326852
20
-121.06872039579345
10
-1092.5907672573685
20
-50.116575095144682
42
-1.000000261938544
10
-1084.2893662592235
20
-41.871774220167012
10
-1013.820982732342
20
-112.82391952303306
42
-1.0000005769272524
0
LWPOLYLINE
5
104
100
AcDbEntity
8
0
100
AcDbPolyline
90
4
70
1
43
0.0
10
-950.01600943657434
20
-62.747829286376451
10
-923.02661865213611
20
-35.573157742466911
42
-1.0000000129047839
10
-914.72521754529134
20
-43.817958507996494
10
-941.71460843612681
20
-70.99263015903361
42
-0.99999999999999989
0
LWPOLYLINE
5
105
100
AcDbEntity
8
0
100
AcDbPolyline
90
4
70
1
43
0.0
10
-864.60486310602823
20
-50.116575092825272
10
-935.07324663211807
20
-121.06872039489046
42
-1.0000005770234628
10
-943.37464763346122
20
-112.82391952313714
10
-872.90626410790651
20
-41.871774221606685
42
-1.0000002618325603
0
LWPOLYLINE
5
106
100
AcDbEntity
8
0
100
AcDbPolyline
90
4
70
1
43
0.0
10
-1072.2427381719483
20
-127.36733698062223
10
-1099.2321289563865
20
-100.19266543671284
42
-1.0000000129047839
10
-1090.9307280623366
20
-91.94786445692769
10
-1063.9413372329293
20
-119.12253604611459
42
-1.0000000074505804
0
LWPOLYLINE
5
107
100
AcDbEntity
8
0
100
AcDbPolyline
90
20
70
1
43
0.0
10
-1126.9264602671974
20
-228.65423679351809
42
0.99999999999999989
10
-1122.6838195800781
20
-224.41159610639883
10
-1122.6838195800781
20
-198.65423679351807
10
-822.68381958007808
20
-198.65423679351812
10
-822.68381958007797
20
-224.41159610639886
42
0.99999999999999989
10
-818.44117889295887
20
-228.65423679351812
10
-812.98381958007803
20
-228.65423679351812
10
-810.98381958007803
20
-230.65423679351812
10
-810.98381958007803
20
-316.65423679351812
10
-812.98381958007803
20
-318.65423679351812
10
-818.44117889295887
20
-318.65423679351812
42
0.9999999925494194
10
-822.68381958007808
20
-322.89687748063739
10
-822.68381958007808
20
-348.65423679351812
10
-1122.6838195800781
20
-348.65423679351807
10
-1122.6838195800781
20
-322.89687748063733
42
0.99999999999999989
10
-1126.9264602671974
20
-318.65423679351801
10
-1132.3838195800781
20
-318.65423679351801
10
-1134.3838195800781
20
-316.65423679351807
10
-1134.3838195800781
20
-230.65423679351807
10
-1132.3838195800781
20
-228.65423679351807
0
LWPOLYLINE
5
108
100
AcDbEntity
8
0
100
AcDbPolyline
90
8
70
1
43
0.0
10
-738.44883880506814
20
-223.69999485015867
42
0.99999999999999989
10
-742.69147949218734
20
-227.94263553727802
10
-742.69147949218723
20
-309.35735416303942
42
1.0000000074505804
10
-738.44883880506802
20
-313.59999485015874
10
-735.33412017930675
20
-313.59999485015874
42
0.99999999999999989
10
-731.09147949218755
20
-309.35735416303947
10
-731.09147949218755
20
-227.94263553727799
42
1.0000000074505804
10
-735.33412017930675
20
-223.69999485015867
0
LWPOLYLINE
5
109
100
AcDbEntity
8
0
100
AcDbPolyline
90
8
70
1
43
0.0
10
-790.08410653657234
20
-131.98616283505083
42
0.43863566928951553
10
-791.89147949218761
20
-136.01351064163373
10
-791.89147949218739
20
-149.40735416303943
42
0.99999999999999989
10
-787.64883880506818
20
-153.64999485015872
10
-696.13412017930671
20
-153.64999485015875
42
0.99999999999999989
10
-691.8914794921875
20
-149.40735416303946
10
-691.89147949218739
20
-136.01351064163373
42
0.43863566928948955
10
-693.69885244780266
20
-131.98616283505083
42
0.3804766228660813
0
LWPOLYLINE
5
110
100
AcDbEntity
8
0
100
AcDbPolyline
90
8
70
1
43
0.0
10
-691.94147949218757
20
-186.24263553727801
42
0.99999999999999989
10
-696.18412017930677
20
-181.9999948501588
10
-777.59883880506823
20
-181.99999485015866
42
1.0000000074505804
10
-781.84147949218743
20
-186.24263553727801
10
-781.84147949218743
20
-189.35735416303939
42
1.0000000074505804
10
-777.59883880506823
20
-193.59999485015868
10
-696.18412017930677
20
-193.59999485015868
42
0.99999999999999989
10
-691.94147949218745
20
-189.35735416303942
0
LWPOLYLINE
5
111
100
AcDbEntity
8
0
100
AcDbPolyline
90
4
70
1
43
0.0
10
-662.11057381362605
20
-360.46291383021514
42
0.68662403263897986
10
-657.50648888293256
20
-363.64999485015869
10
-540.88390286483468
20
-363.64999485015869
10
-660.88390286483491
20
-199.02674070806498
42
0.18580072458157026
0
LWPOLYLINE
5
112
100
AcDbEntity
8
0
100
AcDbPolyline
90
6
70
1
43
0.0
10
-831.8914794921875
20
-393.64999485015869
10
-521.21976174061876
20
-393.64999485015881
42
0.61333926123135185
10
-505.05784515717443
20
-361.86897399669363
10
-676.23415727503175
20
-127.03896122265692
42
0.53956796807775131
10
-811.8914794921875
20
-133.64999485015869
10
-811.8914794921875
20
-193.64999485015869
42
-0.23606797749979028
0
LWPOLYLINE
5
113
100
AcDbEntity
8
0
100
AcDbPolyline
90
8
70
1
43
0.0
10
-448.15734854155261
20
-268.01383907229786
42
0.43863566928950698
10
-446.3499755859375
20
-263.9864912657149
10
-446.34997558593744
20
-250.5926477443092
42
0.99999999999999989
10
-450.59261627305671
20
-246.35000705718994
10
-542.10733489881818
20
-246.35000705718997
42
0.9999999925494194
10
-546.3499755859375
20
-250.5926477443092
10
-546.3499755859375
20
-263.9864912657149
42
0.43863566928951042
10
-544.54260263032222
20
-268.01383907229786
42
0.38047662286608108
0
LWPOLYLINE
5
114
100
AcDbEntity
8
0
100
AcDbPolyline
90
8
70
1
43
0.0
10
-499.79261627305681
20
-176.30000705718996
42
0.99999999999999989
10
-495.54997558593732
20
-172.05736637007075
10
-495.54997558593766
20
-90.642647744309244
42
0.99999999999999989
10
-499.79261627305704
20
-86.400007057189967
10
-502.90733489881825
20
-86.400007057189981
42
0.99999999999999989
10
-507.14997558593751
20
-90.642647744309215
10
-507.14997558593751
20
-172.05736637007072
42
0.99999999999999989
10
-502.90733489881814
20
-176.30000705718999
0
LWPOLYLINE
5
115
100
AcDbEntity
8
0
100
AcDbPolyline
90
8
70
1
43
0.0
10
-546.29997558593743
20
-213.75736637007066
42
0.99999999999999989
10
-542.05733489881823
20
-218.00000705718992
10
-460.64261627305683
20
-218.00000705718998
42
0.99999999999999989
10
-456.39997558593745
20
-213.75736637007066
10
-456.3999755859374
20
-210.64264774430924
42
0.99999999999999989
10
-460.64261627305677
20
-206.40000705718995
10
-542.05733489881811
20
-206.40000705719001
42
0.99999999999999989
10
-546.29997558593743
20
-210.64264774430924
0
LWPOLYLINE
5
116
100
AcDbEntity
8
0
100
AcDbPolyline
90
4
70
1
43
0.0
10
-576.13088126449884
20
-39.537088077133532
42
0.68662403263898242
10
-580.73496619519244
20
-36.350007057189998
10
-697.35755221329032
20
-36.350007057189941
10
-577.35755221329009
20
-200.97326119928368
42
0.18580072458157076
0
LWPOLYLINE
5
117
100
AcDbEntity
8
0
100
AcDbPolyline
90
6
70
1
43
0.0
10
-406.34997558593744
20
-6.3500070571899645
10
-717.02169333750612
20
-6.3500070571899636
42
0.61333926123135196
10
-733.18360992095052
20
-38.131027910655135
10
-562.00729780309314
20
-272.96104068469174
42
0.53956796807775087
10
-426.34997558593744
20
-266.35000705719
10
-426.3499755859375
20
-206.35000705719006
42
-0.2360679774997895
0
ENDSEC
0
SECTION
2
OBJECTS
0
DICTIONARY
5
C
100
AcDbDictionary
3
ACAD_GROUP
350
D
3
ACAD_MLINESTYLE
350
17
0
DICTIONARY
5
D
100
AcDbDictionary
0
DICTIONARY
5
1A
330
C
100
AcDbDictionary
0
DICTIONARY
5
17
100
AcDbDictionary
0
ENDSEC
0
EOF
